<?xml version="1.0" ?><svg style="enable-background:new 0 0 1080 1080;" version="1.1" viewBox="0 0 1080 1080" xml:space="preserve" xmlns="http://www.w3.org/2000/svg" xmlns:xlink="http://www.w3.org/1999/xlink"><g id="_x30_1_Net"/><g id="_x30_2_Android"/><g id="Layer_3"/><g id="Layer_4"/><g id="Layer_5"/><g id="Layer_6"><g><g><g><g><path d="M808.067,233.884       c0,48.609-59.977,91.685-151.961,117.56c-58.031,16.453-128.777,26.174-205.206,26.174s-147.175-9.721-205.207-26.174       c-91.834-25.875-151.81-68.95-151.81-117.56C93.883,154.463,253.621,90,450.9,90S808.067,154.463,808.067,233.884z" style="fill:none;stroke:#2B4B9B;stroke-width:13;stroke-linecap:round;stroke-linejoin:round;"/><path d="M450.904,328.627       c-69.383,0-135.727-8.409-191.849-24.317c-87.795-24.74-116.175-58.131-116.175-70.427c0-28.376,104.796-94.888,308.024-94.888       c203.324,0,308.167,66.512,308.167,94.888c0,12.3-28.412,45.696-116.231,70.399       C586.623,320.218,520.286,328.627,450.904,328.627z" style="fill:none;stroke:#2B4B9B;stroke-width:13;stroke-linecap:round;stroke-linejoin:round;"/><path d="M808.067,233.884       v203.561c0,1.496,0,3.141-0.15,4.637c-0.15,1.496-0.299,2.842-0.448,4.338c-7.03,44.87-65.212,84.356-151.363,108.586       c-58.031,16.452-128.777,26.174-205.206,26.174s-147.175-9.722-205.207-26.174c-5.384-1.496-10.619-3.141-15.854-4.786       c-15.405-4.786-29.764-10.17-43.075-16.154c-4.488-1.944-8.675-3.889-12.863-5.983c-11.367-5.534-21.687-11.516-30.961-17.947       c-3.29-2.244-6.431-4.488-9.273-6.731c-2.842-2.244-5.684-4.487-8.226-6.731c-2.842-2.692-5.684-5.234-8.226-7.927       c-2.094-2.244-4.188-4.637-5.983-7.03c-1.795-2.244-3.589-4.487-5.085-6.731c-0.15-0.299-0.299-0.448-0.449-0.748       c-1.645-2.393-2.992-4.786-4.337-7.179c-0.15-0.299-0.299-0.599-0.449-0.897c-0.897-1.944-1.795-3.739-2.542-5.684       c-1.346-3.291-2.244-6.581-3.141-9.872c-0.299-1.346-0.598-2.842-0.748-4.187c-0.15-1.496-0.299-2.842-0.448-4.338       c-0.15-1.495-0.15-3.14-0.15-4.637V233.884c0,39.785,40.084,75.831,104.847,101.706c14.508,5.833,30.212,11.069,46.963,15.854       c58.032,16.453,128.778,26.174,205.207,26.174s147.175-9.721,205.206-26.174c16.752-4.785,32.607-10.021,47.114-15.854       C767.983,309.714,808.067,273.669,808.067,233.884z" style="fill:none;stroke:#2B4B9B;stroke-width:13;stroke-linecap:round;stroke-linejoin:round;"/><path d="M807.469,446.419       C798.495,522.4,642.197,582.974,450.9,582.974S103.456,522.4,94.481,446.419c7.03,44.87,65.211,84.356,151.212,108.586       c58.032,16.452,128.778,26.174,205.207,26.174s147.175-9.722,205.206-26.174C742.257,530.775,800.439,491.289,807.469,446.419z       " style="fill:none;stroke:#2B4B9B;stroke-width:13;stroke-linecap:round;stroke-linejoin:round;"/></g><g><path d="M808.047,437.423       v203.426c0,1.513,0,3.169-0.144,4.61c0,1.513-0.144,2.881-0.432,4.394c-7.059,44.877-65.191,84.353-151.345,108.556       c-58.06,16.424-128.798,26.149-205.226,26.149s-147.167-9.724-205.226-26.149c-5.33-1.513-10.589-3.17-15.848-4.754       c-15.416-4.827-29.75-10.229-43.077-16.208c-4.466-1.945-8.644-3.89-12.822-5.979c-11.381-5.475-21.682-11.526-30.975-17.937       c-3.314-2.233-6.411-4.466-9.292-6.699c-2.809-2.233-5.691-4.538-8.212-6.771c-2.882-2.665-5.691-5.187-8.212-7.924       c-2.089-2.233-4.178-4.61-5.979-6.987c-1.801-2.233-3.602-4.538-5.114-6.771c-0.144-0.288-0.288-0.432-0.432-0.721       c-1.657-2.377-3.025-4.826-4.322-7.203c-0.144-0.288-0.36-0.576-0.504-0.864c-0.865-1.945-1.801-3.745-2.521-5.691       c-1.369-3.314-2.233-6.555-3.17-9.869c-0.288-1.369-0.576-2.882-0.72-4.178c-0.144-1.513-0.288-2.881-0.432-4.394       c-0.144-1.441-0.144-3.097-0.144-4.61V437.423c0,39.691,40.051,75.708,104.666,101.713       c14.551,5.835,30.398,11.093,47.11,15.848c58.06,16.496,128.798,26.221,205.226,26.221s147.167-9.725,205.226-26.221       c16.856-4.755,32.56-10.013,47.255-15.848C767.996,513.131,808.047,477.114,808.047,437.423z" style="fill:none;stroke:#2B4B9B;stroke-width:13;stroke-linecap:round;stroke-linejoin:round;"/><path d="M807.469,649.83       c-8.975,76.13-165.123,136.705-356.569,136.705S103.456,725.961,94.481,649.83c7.03,44.87,65.211,84.356,151.212,108.586       c58.032,16.452,128.778,26.174,205.207,26.174s147.175-9.722,205.206-26.174C742.257,734.187,800.439,694.701,807.469,649.83z" style="fill:none;stroke:#2B4B9B;stroke-width:13;stroke-linecap:round;stroke-linejoin:round;"/></g><g><path d="M808.047,640.92       v84.064c-54.314,17.721-93.573,68.793-93.573,129.014c0,28.814,8.932,55.538,24.204,77.437       C673.703,966.949,569.037,990,450.9,990c-197.303,0-357.003-64.327-357.003-143.709V640.92       c0,48.623,59.933,91.7,151.777,117.56c58.06,16.424,128.798,26.149,205.226,26.149s147.167-9.725,205.226-26.149       C748.115,732.62,808.047,689.544,808.047,640.92z" style="fill:none;stroke:#2B4B9B;stroke-width:13;stroke-linecap:round;stroke-linejoin:round;"/></g></g><ellipse cx="181.351" cy="424.622" rx="38.46" ry="38.459" style="fill:none;stroke:#2B4B9B;stroke-width:13;stroke-linecap:round;stroke-linejoin:round;" transform="matrix(0.7071 -0.7071 0.7071 0.7071 -247.1364 252.6031)"/><ellipse cx="636.724" cy="455.343" rx="27.786" ry="27.786" style="fill:none;stroke:#2B4B9B;stroke-width:13;stroke-linecap:round;stroke-linejoin:round;" transform="matrix(0.7071 -0.7071 0.7071 0.7071 -135.4844 583.5985)"/><ellipse cx="731.285" cy="424.622" rx="27.786" ry="27.786" style="fill:none;stroke:#2B4B9B;stroke-width:13;stroke-linecap:round;stroke-linejoin:round;" transform="matrix(0.7071 -0.7071 0.7071 0.7071 -86.0644 641.4654)"/><ellipse cx="636.724" cy="656.27" rx="27.786" ry="27.786" style="fill:none;stroke:#2B4B9B;stroke-width:13;stroke-linecap:round;stroke-linejoin:round;" transform="matrix(0.7071 -0.7071 0.7071 0.7071 -277.5612 642.4486)"/><ellipse cx="731.285" cy="625.549" rx="27.786" ry="27.786" style="fill:none;stroke:#2B4B9B;stroke-width:13;stroke-linecap:round;stroke-linejoin:round;" transform="matrix(0.7071 -0.7071 0.7071 0.7071 -228.1412 700.3156)"/><ellipse cx="636.724" cy="866.927" rx="27.786" ry="27.786" style="fill:none;stroke:#2B4B9B;stroke-width:13;stroke-linecap:round;stroke-linejoin:round;" transform="matrix(0.7071 -0.7071 0.7071 0.7071 -426.518 704.1486)"/><ellipse cx="181.351" cy="628.21" rx="38.46" ry="38.459" style="fill:none;stroke:#2B4B9B;stroke-width:13;stroke-linecap:round;stroke-linejoin:round;" transform="matrix(0.7071 -0.7071 0.7071 0.7071 -391.0955 312.2329)"/><ellipse cx="181.351" cy="831.799" rx="38.46" ry="38.459" style="fill:none;stroke:#2B4B9B;stroke-width:13;stroke-linecap:round;stroke-linejoin:round;" transform="matrix(0.7071 -0.7071 0.7071 0.7071 -535.0545 371.8627)"/></g><path d="M986.117,853.999    c0,74.988-60.797,135.785-135.857,135.785c-46.174,0-87.018-23.051-111.581-58.348c-15.271-21.899-24.204-48.623-24.204-77.437    c0-60.221,39.259-111.293,93.573-129.014c13.254-4.394,27.445-6.771,42.212-6.771C925.319,718.213,986.117,779.01,986.117,853.999    z" style="fill:none;stroke:#2B4B9B;stroke-width:13;stroke-linecap:round;stroke-linejoin:round;"/><g><line style="fill:none;stroke:#2B4B9B;stroke-width:13;stroke-linecap:round;stroke-linejoin:round;" x1="850.296" x2="850.296" y1="770.246" y2="937.751"/><polyline points="901.8,885.238      850.296,937.751 798.791,885.238    " style="fill:none;stroke:#2B4B9B;stroke-width:13;stroke-linecap:round;stroke-linejoin:round;"/></g></g></g><g id="Layer_7"/><g id="Layer_8"/><g id="Layer_9"/><g id="Layer_10"/><g id="Layer_11"/><g id="Layer_12"/><g id="Layer_13"/><g id="Layer_14"/><g id="Layer_15"/><g id="Layer_16"/><g id="Layer_17"/><g id="Layer_18"/><g id="Layer_19"/><g id="Layer_20"/><g id="Layer_21"/></svg>